
<svg version="1.0" xmlns="http://www.w3.org/2000/svg" width="400px" height="400px" viewBox="0 0 4000 4000" preserveAspectRatio="xMidYMid meet">
<g id="layer101" fill="#42d31a" stroke="none">
 <path d="M1966 3778 c-17 -16 -76 -144 -187 -405 l-162 -383 -482 0 c-279 0 -505 -4 -536 -10 -80 -15 -188 -72 -246 -130 -59 -59 -116 -162 -132 -238 -8 -36 -11 -314 -11 -885 0 -716 2 -841 15 -892 48 -184 201 -325 385 -354 90 -15 2691 -15 2780 0 179 28 327 156 380 326 19 63 20 92 20 917 0 537 -4 867 -11 895 -27 119 -129 251 -237 309 -111 59 -138 62 -668 62 l-481 0 -162 383 c-90 210 -170 389 -179 398 -30 30 -58 32 -86 7z m1244 -1363 c30 -17 69 -49 87 -73 59 -78 63 -107 63 -494 l0 -348 -105 0 -105 0 0 32 0 31 -22 -20 c-55 -50 -129 -67 -214 -50 -160 33 -244 147 -244 331 0 154 42 231 156 287 51 25 77 32 122 32 72 -1 132 -17 167 -45 l28 -22 -7 44 c-14 87 -60 130 -140 130 l-46 0 0 101 0 101 103 -4 c90 -3 108 -7 157 -33z m-2034 -307 c57 -26 112 -82 138 -137 28 -63 29 -212 2 -290 -20 -59 -81 -133 -130 -159 -102 -53 -232 -44 -303 21 l-23 20 0 -166 0 -167 -110 0 -110 0 2 443 3 442 108 3 c102 3 107 2 107 -18 0 -25 3 -25 49 5 70 47 172 48 267 3z m1171 10 c61 -22 144 -93 177 -152 109 -190 -15 -420 -251 -466 -148 -29 -308 43 -378 171 -22 42 -30 70 -33 130 -4 67 -1 83 23 137 29 65 95 136 155 167 87 45 207 50 307 13z m-629 -341 l-3 -342 -33 -67 c-46 -93 -119 -143 -239 -163 l-43 -7 0 111 c0 95 2 111 16 111 9 0 31 15 50 34 l34 34 0 316 0 316 111 0 110 0 -3 -343z"></path>
 <path d="M2973 1935 c-66 -28 -92 -118 -53 -182 54 -89 180 -81 222 14 31 71 0 144 -75 172 -37 14 -55 13 -94 -4z"></path>
 <path d="M922 1924 c-74 -51 -66 -171 14 -209 110 -52 215 57 159 165 -28 55 -123 79 -173 44z"></path>
 <path d="M2143 1930 c-63 -38 -81 -120 -40 -181 29 -43 60 -59 116 -59 37 0 49 5 82 39 33 33 39 45 39 82 0 107 -109 173 -197 119z"></path>
 </g>

</svg>